<svg xmlns="http://www.w3.org/2000/svg" viewBox="0 0 496.831 496.831"  xmlns:v="https://vecta.io/nano"><defs><linearGradient id="A" x1="111.846" y1="254.283" x2="385.249" y2="255.239" gradientUnits="userSpaceOnUse"><stop offset="0" stop-color="#ff84a0"/><stop offset="1" stop-color="#a427b2"/></linearGradient></defs><path d="M282.044 203.485c-50.331-18.941-67.309-30.381-67.309-45.35 0-17.49 15.958-27.112 44.968-27.112 18.257 0 35.362 2.522 52.276 7.693 9.831 3.031 20.808 1.866 29.808-3.16 9.034-5.074 15.703-13.723 18.289-23.778l.543-2.138c5.552-21.589-7.47-43.787-29.042-49.5-14.81-3.895-31.31-6.446-49.117-7.555V35.224C282.461 15.805 266.648 0 247.225 0c-19.434 0-35.232 15.805-35.232 35.224v22.35c-62.043 13.911-100.339 55.961-100.339 110.662 0 68.347 59.344 97.085 111.03 114.477 42.318 14.3 58.804 27.161 58.804 45.862 0 19.23-19.023 30.702-50.888 30.702-21.481 0-43.407-3.957-65.202-11.742-9.704-3.479-20.777-2.682-29.873 2.137-9.206 4.882-15.958 13.468-18.542 23.521l-1.18 4.66c-5.476 21.318 6.687 43.274 27.67 50.009 20.138 6.448 43.194 10.726 65.536 12.207v21.544c0 19.419 15.813 35.218 35.219 35.218 19.436 0 35.232-15.799 35.232-35.234v-26.392c64.404-13.053 105.718-57.719 105.718-114.958-.001-56.331-30.878-91.278-103.134-116.762z" fill="url(#A)"/></svg>