<svg xmlns="http://www.w3.org/2000/svg" width="1200" height="1200" viewBox="0 0 900 900" preserveAspectRatio="xMidYMid meet" xmlns:v="https://vecta.io/nano"><path d="M423.7 1.4c-.4.9-2.7 1.7-6.4 2-6.4.7-18.2 3-25.8 5.1-2.7.8-5.9 1.6-7 1.9-6.4 1.5-22.3 8-36.2 14.8-33.7 16.4-64.9 43.9-86 75.5-6.6 9.9-19.8 34.3-21.6 39.8-.3 1.1-1.3 3.8-2.2 6-1.5 3.9-4.2 12.1-6.9 21.5-1.9 6.2-4.2 18.4-6.1 31.2-1.2 8.7-1.5 22.5-1.5 74.2 0 48.1-.3 63.7-1.2 64.2-.6.4-5.7.6-11.2.5-13-.3-31.4 1.5-39.3 3.9-23.2 7.1-42.6 23.4-52.1 44-5 10.9-6.9 18-8.1 30.1-1.5 15.7-1.5 390.6 0 406.9 2 21.7 8.4 36.1 23.1 51.6 11.5 12.1 26.1 20.5 42.1 24.3 6.8 1.6 536.6 1.6 543.4 0 16-3.8 30.6-12.2 42.1-24.3 14.5-15.3 21-29.7 23.1-51 1.5-15.2 1.5-392 0-407.2-.6-6-1.9-13.7-2.9-17.1-8.5-27.8-28.1-47.7-56.5-57.1-7.3-2.4-27.3-4.4-40.5-4.1-5.3.2-10.1-.1-10.8-.5-.9-.5-1.2-15.8-1.2-63.7 0-76.4-.6-82.8-10.7-116.4-6.3-20.6-20.7-48.5-34.8-67-24.5-32.3-59.4-59-96-73.5-9.1-3.6-12.9-4.8-25.5-8.5-6.4-1.8-19.5-4.3-26.3-5.1-3.7-.3-6-1.1-6.4-2C473.9.2 469.5 0 449 0s-24.9.2-25.3 1.4zm46.8 76.2c22.2 3.9 37.6 9.4 55 19.7 34.5 20.5 58.8 53.1 68.8 92.2 4.6 17.8 4.8 21.8 4.5 86.5l-.3 61.5H449 299.5l-.3-61.5c-.3-64.7-.1-68.7 4.5-86.5 3.1-12.2 8.6-26.3 13.5-34.8 1.5-2.6 2.8-5 2.8-5.2s2.1-3.5 4.8-7.3c21.1-30.8 51.7-52.3 87.7-61.5 18.8-4.8 41.4-6.1 58-3.1zm1 414.4c15.5 5.5 26 12.7 35.2 24 5.1 6.3 14.3 23.2 14.3 26.3 0 .9.7 4.2 1.5 7.4.8 3.1 1.5 9.4 1.5 13.8s-.7 10.7-1.5 13.8c-.8 3.2-1.5 6.4-1.5 7.2 0 2.1-6.3 15.3-9.7 20.2-4.2 6.2-11 13.2-18 18.6-3.5 2.7-6.5 5.8-6.8 7s-.6 22.9-.7 48.2l-.3 46-2.7 5.1c-5.2 9.9-11.8 15.6-22.3 19.3-16.5 5.8-35.6-1.9-44.4-17.9l-3.6-6.5-.3-46-.7-48.2c-.3-1.2-3.3-4.3-6.8-7-7-5.4-13.8-12.4-18-18.6-3.4-4.9-9.7-18.1-9.7-20.2 0-.8-.7-4-1.5-7.2-4.2-16 .4-38.8 11.1-54.9 9.8-14.7 21.7-23.8 39.4-30.2 7.2-2.5 12.7-3.1 26.5-2.7 10 .3 14.4.9 19 2.5z"/></svg>