<svg xmlns="http://www.w3.org/2000/svg" viewBox="-80 0 1060 444" preserveAspectRatio="xMidYMid meet" fill="#999" xmlns:v="https://vecta.io/nano"><path d="M137.5 99.1c-15.2 4.9-28.3 21-35 42.9-3.3 10.8-3.5 10.9-21.4 15.9-6.5 1.8-8.8 4.7-9.5 11.7-.3 3.3-1.3 10.8-2.1 16.9L66.6 209l-3.1 23.5-3.1 23.5-2.9 21.5c-.9 5.5-1.5 12.3-1.5 15.1v5.1l8.3 1.7a520.02 520.02 0 0 0 15.2 3.1l13 2.5c3.3.7 8.4 1.6 11.3 2 2.9.5 7.4 1.3 10 1.9 7.3 1.6 16.2 3.3 22.2 4.1 3 .4 7.5 1.3 10 1.8 2.5.6 8.8 1.8 14 2.7s12.5 2.4 16.2 3.2c5.9 1.3 7.4 1.3 13 0l14.3-3.2c4.4-.9 10.5-2.3 13.5-3l13.5-3c4.4-.9 10.8-2.4 14.3-3.3l6.2-1.5v-5.6c0-3.1-.4-7.2-1-9.1-.5-1.9-1.4-7.1-1.9-11.5l-2.1-15-2.5-16.8-3-19.5-3-20.7-6-40.5c-4.6-31.1-3.6-29-14.4-29-8.7 0-9.2-.3-20.1-10.8-3.1-3-5.1-4.2-6.5-3.9-8.7 2-7.7 2.4-11.4-4.8-4-7.9-9.8-13-15.9-14-2.3-.4-5.5-1.7-7-2.9-2.5-2.1-10.3-5.7-12-5.5-.4 0-3.4.9-6.7 2zm9.5 8.4c0 .8-.5 1.5-1.1 1.5-2.5 0-11 10.2-14.3 17.4-2 4.2-3.6 8.3-3.6 9.1s-.7 3.2-1.5 5.2c-1.4 3.4-2.2 4-7.3 5.6-7.7 2.4-9.2 2.3-9.2-.8 0-2.8 3.3-10.7 8.9-21.3 2.4-4.5 12.4-13.8 17.1-16 5.5-2.5 11-2.9 11-.7zm22.4 9.8c1.4 1.8 3.3 5 4.1 7.1 1.9 4.4 1.4 5-4.3 6.1-4.2.8-5.2-.4-5.2-6.1 0-2.3-.3-5.6-.6-7.3-.6-2.7-.4-3.1 1.4-3.1 1.2 0 3.2 1.4 4.6 3.3zm-13.7 3.7c.7 3 1.2 7.3 1 9.5-.2 3.9-.3 3.9-6.6 6.1-14.6 5-16.1 4.2-11.1-6.3 3.3-7.2 11.1-15.6 13.9-15.1 1 .2 2 2.4 2.8 5.8zm3 55.3c1.5 1.5 1.4 2.4-1.5 10.9-4.9 14.8-6 17.1-8 16.3-8.4-3.5-17.4-4.3-22.7-2.1-3.8 1.6-5.5 4.2-5.5 8.3 0 4 2.1 6.6 8.8 11 16.3 10.8 22.5 22.8 20.1 38.8-1.8 11.1-5.2 17-13.4 23.2-5 3.8-16.1 6.7-21.8 5.8-16.8-2.8-30.8-10.8-29.2-16.9.3-1.1 1.3-4.6 2.2-7.6s1.7-6.1 1.9-6.8c.5-1.9 3.1-1.4 7.5 1.4 11.2 7 20.2 7.1 22.8.2 1.8-4.8-.6-9.5-8.4-16.1-8.5-7.4-12.1-12-14-18.4-4.5-14.9 1.7-31.7 15.7-42 9.3-6.8 15.5-8.3 32.1-7.9 9.2.3 12.2.7 13.4 1.9zm598.8-33.7c-12.5 3-15 4-21.1 9-7.1 5.8-12.1 14.8-15.4 27.9-1.8 6.9-2.5 7.5-8.5 7.5h-5.3l-1.7 6.9c-.9 3.7-1.5 8.3-1.3 10.2.3 3.3.4 3.4 5.6 3.7 5.8.3 5.7.3 4.3 7.9-.6 2.6-1.7 8.6-2.6 13.3l-3 15.5-4.6 24.5c-.5 3-1.3 7.1-1.9 9-.5 1.9-.6 3.8-.2 4.2.5.5 6.7.7 13.8.6l12.9-.3 1.2-5.5c1.2-5.2 2.6-12.8 5.8-30l6.1-31.8 1.6-7.2h8.4c7.6 0 8.5-.2 9.8-2.3 1.5-2.3 3.9-16.5 3-17.9-.3-.4-4.1-.8-8.4-.8s-8.1-.4-8.5-.9c-.8-1.3 1.5-10 3.5-13.3 3.3-5.5 6.8-7.3 14.3-7.3h6.9l1.8-5.7c1-3.2 2.1-7.7 2.4-10.1.6-4.1.5-4.4-2.1-5.6-2.9-1.4-13.4-2.3-16.8-1.5zm-373.3 3.6c-.7.7-1.2 2.7-1.2 4.5 0 1.9-.6 6.2-1.4 9.6-1.7 7.4-3.9 18.6-9.2 47.2l-2.9 15c-.8 3.8-2.1 10.7-2.9 15.2l-3.2 16.5c-.8 4.6-2.2 11.3-3 14.9-.8 3.7-1.4 8.3-1.4 10.3v3.6h13c9.6 0 13.2-.3 13.4-1.3.4-1.4 2.8-13.2 5.1-25.2l3.1-16c4.2-21.2 11.9-32.7 22.1-32.9 3.6-.1 4.8.4 6.3 2.4 1.1 1.4 2.2 3.7 2.5 5.2.7 3.1-1.1 14-9.5 56.3-.7 3.3-1.3 7.1-1.4 8.5l-.1 2.5 13.2.3 13.2.3 1.1-4.2c.6-2.3 1.6-6.7 2-9.8.5-3.1 1.4-7.6 1.9-10.1l2.6-13 3.2-15.8c.8-4.1 1.6-12.4 1.6-18.5.1-9.6-.2-11.8-2-15.2-2.8-5.3-5.9-8.1-11.2-10-9.4-3.3-23.6-.4-30.7 6.3-1.1 1.1-3.1 2.5-4.4 3.2-2.2 1.2-2.3 1.1-1.6-2.1l4.6-24.4c.4-2.8 1.2-6.8 1.8-9s1.3-6.6 1.7-9.8l.6-5.7h-12.8c-8.7 0-13.3.4-14.1 1.2zm296.4 2.1c-6.6 3.8-9.2 11.7-6.5 19.5 1.5 4.4 6.5 7.2 12.5 7.2 5.4 0 8.9-1.8 12.6-6.5 3.1-3.9 3.2-14.3.2-17.6-4.8-5.3-12.3-6.3-18.8-2.6zM323 186.4c-11 2.5-20.2 9.2-24.7 18-2.1 4.1-2.6 6.6-2.7 12.7-.1 7.3.1 7.9 3.8 13.4 2.2 3.2 6.4 7.3 9.5 9.5 13.2 9.2 14 9.9 14.6 13.4.9 4.7-.1 7.4-3.8 9.7-4.4 2.6-11.6 2.4-20.7-.6l-8.1-2.5c-.3 0-1.4 1.9-2.3 4.2l-3.2 7.6c-3 7.1-1.1 9 11.7 11.7 9.2 1.9 18.4 1.9 26.9.1 9.6-2.1 13.7-4.2 19.5-10 4.3-4.3 5.7-6.6 7.4-12.1 1.2-3.7 2.1-8.1 2-9.9-.1-8.1-8-19.2-17.5-24.7-9.4-5.3-12.4-8.5-12.4-12.9 0-3.2.6-4.3 3.1-6.1 3.8-2.7 10-3.4 15.9-1.9 8.7 2.3 9.9 2 11.9-3 4-9.9 4.4-12.1 2.8-13.7-3.7-3.7-22.7-5.3-33.7-2.9zm178.5.1c-14 4-27.5 15.3-33.7 28.5-6.3 13.4-7.2 17.2-7.2 31 .1 11.2.3 13.1 2.6 18.1 5.3 11.6 13.3 17.7 26.9 20.5 8.1 1.7 8.9 1.7 15.9 0 9.7-2.2 14.3-4.2 20.6-8.7 11-8 18.2-18.9 22.5-33.9 2.7-9.4 2.6-27-.1-34.1-4.2-10.6-10.7-17.2-20.2-20.6-5.8-2.1-21-2.5-27.3-.8zm15.6 21.2c3.3 2 6.9 9.6 6.9 14.6 0 3.1-.5 6.3-2.9 17.7-1.2 5.5-6.6 16.2-9.8 19.2-1.5 1.5-4.5 3.4-6.6 4.3-3.5 1.5-4.1 1.4-8.3-.4-10.1-4.5-11.3-19.7-3.1-40.8 5.1-13.1 15.5-19.5 23.8-14.6zm94.9-21.4c-4.4 1.3-13.8 7.4-15.3 9.9-2.3 3.5-3.7 2.1-3.7-3.7v-5.6l-11.7.3-11.7.3-1.8 12c-1 6.6-2.5 15.5-3.3 19.7l-2.9 15.5-6.1 31.3c-.9 3.6-1.5 7.4-1.5 8.5s-.6 4.9-1.5 8.5c-.8 3.6-2.1 10.3-3 15l-3.1 15.3c-.8 3.8-1.2 7.3-.8 7.8.3.5 6.3.9 13.4.9h12.9l1.2-4.3c.6-2.3 1.5-6.7 1.9-9.7.5-3 1.3-7.5 1.9-10 .5-2.5 1.3-6.7 1.6-9.3.4-2.7 1.3-5.1 2-5.3.8-.3 4.6.2 8.5 1.2 6.8 1.6 7.6 1.6 15.2 0 4.5-1 10.4-3 13.1-4.4 11-5.9 21.5-18.5 26.9-32.4 2.5-6.5 5.7-21.8 5.8-27.7.1-11.1-5.9-25.7-12.5-30.4-6.1-4.4-17.4-5.9-25.5-3.4zm5 24.1c5.2 5.7 4.4 23.5-1.8 36.6-4.7 9.8-13.8 18-20 18-1.8 0-5.1-.9-7.3-2.1-3.8-1.9-4.1-2.3-3.4-5.2.3-1.8 1.5-7.7 2.6-13.2 3.2-16.8 3.5-17.8 6.3-23.5 4.5-8.9 9.7-13 16.7-13 3.5 0 5.1.5 6.9 2.4zm51.6-22.2c-.2.7-1 4.7-1.9 8.8-1.5 7.1-2.8 13.6-6.2 32.2l-3 15.3c-.8 3.8-2.1 10.8-3 15.5-.8 4.7-2.2 11.4-3 14.9-.9 3.6-1.2 6.8-.7 7.3s6.7.7 13.7.6l12.9-.3 1.3-5.5 2.9-14 2.9-15.5 3-15.5 6.1-30.5c.8-3.9 1.4-8.7 1.4-10.8V187h-13c-9.6 0-13.2.3-13.4 1.2zm102.9-.3c-.6 1 .5 8.2 2.6 18.3.6 2.6 1.4 7.1 1.9 10 .4 2.9 1.3 8 2 11.3l2.6 14 2.9 15c3.9 20.2 4 21.4 2 24.8-4.5 7.8-12.4 14.8-22.5 19.8-3.3 1.6-6 3.5-6 4.2 0 2.4 5.3 18.2 6.7 19.8 1.2 1.5 1.8 1.5 5.6.2 15-5.1 30.7-20.4 43.8-42.3 4.2-7.1 15.4-29.2 23.2-46l8-17 7.7-16.5 5.1-10.9c1-2.1 1.6-4.3 1.3-4.7-.3-.5-6.6-.9-14-.9-11.9 0-13.5.2-14 1.7-.3 1-1.9 5.2-3.6 9.3s-3.6 9.2-4.4 11.2l-2.8 7.5L815 229l-4.6 11.8c-.8 1.8-1.4 4.1-1.4 5.2 0 2.2-1.6 3.5-2.4 2.1-1-1.5-5.4-39-6.9-57.6l-.2-3-13.7-.3c-8.4-.1-13.9.1-14.3.7z"/></svg>