<svg xmlns="http://www.w3.org/2000/svg" width="80" height="80" xmlns:v="https://vecta.io/nano"><path d="M4.328.125c-.027.07-.223.152-.434.188s-.66.195-1.004.363A5.26 5.26 0 0 0 .133 3.883c-.16.527-.168 2.305-.016 2.871.141.516.523 1.266.879 1.727.16.203 7.297 7.379 15.867 15.957l15.582 15.73c0 .082-7.039 7.184-15.652 15.789L.949 71.867c-.355.488-.637 1.039-.797 1.555-.145.461-.18 2.473-.063 2.891.48 1.66 1.652 2.906 3.402 3.59.34.133 2.746.125 3.211-.008.195-.062.523-.207.719-.312.195-.117.453-.25.578-.293.117-.055 7.324-7.211 16.008-15.895l15.875-15.812c.047-.02 7.203 7.086 15.902 15.777L71.84 79.297c1.254.66 1.449.703 2.926.703 1.395 0 1.707-.07 2.566-.559 1.051-.59 2.172-2.035 2.348-3.016.035-.211.117-.336.188-.336.105 0 .133-.195.133-1.066 0-.953-.02-1.086-.18-1.246-.098-.098-.176-.25-.176-.348 0-.301-.391-1.055-.852-1.652-.16-.195-7.289-7.359-15.852-15.91L47.395 40.152c.02-.09 7.031-7.176 15.594-15.734l15.828-15.93c.383-.496.793-1.297.863-1.68.035-.195.117-.32.188-.32.105 0 .133-.203.133-1.156 0-.824-.027-1.145-.105-1.137-.055.02-.152-.141-.215-.348-.215-.719-.781-1.66-1.324-2.203-.578-.586-1.734-1.219-2.426-1.332-.215-.035-.41-.117-.437-.187-.07-.18-1.5-.18-1.562 0-.027.07-.207.16-.391.188-.465.078-.953.281-1.574.676-.375.23-5.023 4.824-16.223 16.023l-15.82 15.699c-.074 0-7.191-7.059-15.824-15.687L8.168 1.164C7.75.844 6.719.383 6.293.32 6.008.277 5.867.215 5.867.125c0-.18-1.469-.187-1.539 0zm0 0" fill="rgb(0%,0%,0%)"/></svg>